
<svg id="instagram" xmlns="http://www.w3.org/2000/svg" width="20" height="20" viewBox="0 0 20 20">
  <rect id="instagram-2" data-name="instagram" width="20" height="20" fill="none"/>
  <path id="Vector" d="M13.49,3.176a1,1,0,1,1-.707-.293,1,1,0,0,1,.707.293Zm3.176,5.157c0,2.267-.05,2.55-.05,3.433a6.325,6.325,0,0,1-.383,2.025,4.042,4.042,0,0,1-.967,1.475,3.917,3.917,0,0,1-1.475.958,6.083,6.083,0,0,1-2.025.392c-.883.05-1.167.05-3.433.05s-2.55,0-3.433-.05a6.083,6.083,0,0,1-2.025-.392A3.983,3.983,0,0,1,1.4,15.267a3.917,3.917,0,0,1-.958-1.475A6.083,6.083,0,0,1,.05,11.767C0,10.883,0,10.6,0,8.333S0,5.783.05,4.9A6.083,6.083,0,0,1,.442,2.875,3.917,3.917,0,0,1,1.4,1.4,3.983,3.983,0,0,1,2.875.442,6.083,6.083,0,0,1,4.9.05C5.783,0,6.067,0,8.333,0s2.55,0,3.433.05a6.083,6.083,0,0,1,2.025.392,3.917,3.917,0,0,1,1.475.958,4.117,4.117,0,0,1,.967,1.475A6.325,6.325,0,0,1,16.617,4.9c.05.883.05,1.167.05,3.433Zm-1.5,0c0-2.192-.008-2.5-.05-3.333a4.675,4.675,0,0,0-.283-1.583,2.55,2.55,0,0,0-.625-.917,2.55,2.55,0,0,0-.992-.667,4.675,4.675,0,0,0-1.55-.283c-.833-.05-1.142-.05-3.333-.05s-2.5.05-3.333.05a4.775,4.775,0,0,0-1.583.283A2.617,2.617,0,0,0,2.5,2.5a2.5,2.5,0,0,0-.658.917A4.617,4.617,0,0,0,1.55,5c-.05.833-.05,1.142-.05,3.333s.05,2.5.05,3.333a4.617,4.617,0,0,0,.333,1.583,2.5,2.5,0,0,0,.617.958,2.725,2.725,0,0,0,.917.625,4.775,4.775,0,0,0,1.617.25c.833.05,1.142.05,3.333.05s2.5-.008,3.333-.05a4.675,4.675,0,0,0,1.55-.283,2.658,2.658,0,0,0,.958-.625,2.55,2.55,0,0,0,.625-.958,4.675,4.675,0,0,0,.283-1.55C15.158,10.833,15.167,10.525,15.167,8.333ZM9.973,4.379a4.288,4.288,0,1,1-1.64-.321,4.267,4.267,0,0,1,1.64.321ZM9.4,10.9a2.775,2.775,0,1,0-1.062.211A2.775,2.775,0,0,0,9.4,10.9Z" transform="translate(1.667 1.667)" fill="#818181"/>
</svg>