<svg id="In" xmlns="http://www.w3.org/2000/svg" width="20" height="20" viewBox="0 0 20 20">
  <rect id="In-2" data-name="In" width="20" height="20" fill="none"/>
  <path id="e42de672acac05e6c1484ce6eac8627f" d="M15.386,2H3.124A1.05,1.05,0,0,0,2.06,3.035V15.441a1.05,1.05,0,0,0,1.064,1.035H15.386a1.05,1.05,0,0,0,1.064-1.035V3.035A1.05,1.05,0,0,0,15.386,2ZM6.425,14.117H4.253V7.6H6.425ZM5.339,6.69h0a1.129,1.129,0,1,1,0-2.258,1.136,1.136,0,1,1,0,2.258Zm8.918,7.426H12.085v-3.5c0-.876-.311-1.448-1.1-1.448a1.194,1.194,0,0,0-1.115.789,1.448,1.448,0,0,0-.072.528V14.11H7.626V7.6H9.8v.919a2.171,2.171,0,0,1,1.962-1.086c1.448,0,2.5.934,2.5,2.939Z" transform="translate(0.745 0.762)" fill="#818181"/>
</svg>

