
<svg id="telegram" xmlns="http://www.w3.org/2000/svg" width="20" height="20" viewBox="0 0 20 20">
  <rect id="telegram-2" data-name="telegram" width="20" height="20" fill="none"/>
  <g id="Button_Black" transform="translate(-12.356 -8.903)">
    <path id="Path_69954" data-name="Path 69954" d="M23.408,22.1a2.013,2.013,0,0,1-2.029,1.912,2.056,2.056,0,0,1-.711-.126,2.056,2.056,0,0,0,.711.126A2.013,2.013,0,0,0,23.408,22.1l0-9.47h1.77a3.292,3.292,0,0,0,1.475,2.156h0a3.4,3.4,0,0,0,1.831.532v.526h0v1.837a5.841,5.841,0,0,1-3.364-1.057v4.8a4.406,4.406,0,0,1-4.45,4.349,4.5,4.5,0,0,1-2.55-.788h0a4.319,4.319,0,0,1-1.9-3.56,4.406,4.406,0,0,1,4.45-4.349,4.553,4.553,0,0,1,.6.042v.56a4.418,4.418,0,0,0-4.318,3.862,4.418,4.418,0,0,1,4.318-3.862v1.853a2.045,2.045,0,0,0-.6-.092,2.012,2.012,0,0,0-2.032,1.986,1.982,1.982,0,0,0,1.09,1.758h0a2.055,2.055,0,0,0,.943.228A2.013,2.013,0,0,0,22.7,21.5l0-9.47h2.418a3.218,3.218,0,0,0,.057.6h-1.77Z" fill="#818181" fill-rule="evenodd"/>
  </g>
</svg>
