
<svg id="youtube" xmlns="http://www.w3.org/2000/svg" width="20" height="20" viewBox="0 0 20 20">
  <rect id="youtube-2" data-name="youtube" width="20" height="20" fill="none"/>
  <path id="Vector" d="M18.307,8.326a8.817,8.817,0,0,1-.433,2.833,2.075,2.075,0,0,1-.508.833,2.4,2.4,0,0,1-1.275.65c-3.025.233-5.583.275-8.5.233A37.65,37.65,0,0,1,2.174,12.6a2.383,2.383,0,0,1-1.242-.65,2.617,2.617,0,0,1-.592-1.133,7.958,7.958,0,0,1-.25-1.667,40.241,40.241,0,0,1,0-5.4A4.3,4.3,0,0,1,1.007.876,2.392,2.392,0,0,1,2.224.26,65.377,65.377,0,0,1,9.174.01a65.3,65.3,0,0,1,6.975.258,2.433,2.433,0,0,1,1.433.833,7.083,7.083,0,0,1,.758,3.442c0,.5,0,3.317-.033,3.783ZM12.224,6.26,7.291,3.668V8.826c1.725-.933,3.55-1.8,4.933-2.567Z" transform="translate(0.826 3.549)" fill="#818181"/>
</svg>