<?xml version="1.0" encoding="UTF-8" standalone="no"?>
<!-- Created with Inkscape (http://www.inkscape.org/) -->

<svg
   width="441"
   height="446"
   viewBox="0 0 116.68125 118.00417"
   version="1.1"
   id="svg5"
   xml:space="preserve"
   xmlns="http://www.w3.org/2000/svg"
   xmlns:svg="http://www.w3.org/2000/svg"><defs
     id="defs2" /><g
     id="layer1"><g
       id="g375"><path
         style="fill:#aa0000;stroke-width:0.303064"
         d="m 88.57318,95.72435 -4.30643,-0.0902 -0.19746,-0.97982 c -0.1086,-0.5389 -0.14471,-10.63419 -0.0802,-22.433978 0.13528,-24.76161 -0.0823,-23.033772 3.0665,-24.349238 2.68165,-1.120292 4.751637,-1.428625 8.656887,-1.289472 3.03221,0.108044 3.75238,0.234921 5.278373,0.929929 4.27929,1.948997 6.37142,6.405549 5.12806,10.923524 -0.27416,0.996192 -1.11976,3.033583 -1.87913,4.527531 -4.09075,8.047984 -4.606763,9.993522 -4.606763,17.369094 0,5.14456 0.28279,7.74596 1.326063,12.19822 0.5772,2.46329 0.60911,2.91165 0.22336,3.13889 -0.42747,0.25181 -2.754023,0.26206 -12.60921,0.0555 z"
         id="path357" /><path
         style="fill:#aa0000;stroke-width:0.303064"
         d="m 92.823887,113.58997 c -1.0235,-0.20624 -1.25569,-0.62518 -1.67755,-3.02676 -0.21187,-1.20618 -0.49132,-2.71938 -0.621,-3.36267 -1.255477,-6.22803 -1.572107,-7.946207 -1.572107,-8.530907 0,-0.66568 0.0648,-0.67988 3.102637,-0.67988 2.184,0 3.20435,0.11409 3.44616,0.38533 0.18894,0.21192 0.54535,1.49485 0.79201,2.850947 0.24667,1.3561 0.9057,4.60821 1.4645,7.22691 0.5588,2.61871 0.91521,4.85511 0.79201,4.96979 -0.25935,0.24144 -4.71302,0.3715 -5.72666,0.16725 z"
         id="path353" /></g></g></svg>
