<?xml version="1.0" encoding="UTF-8" standalone="no"?>
<!-- Created with Inkscape (http://www.inkscape.org/) -->

<svg
   width="441"
   height="446"
   viewBox="0 0 116.68125 118.00417"
   version="1.1"
   id="svg5"
   xml:space="preserve"
   xmlns="http://www.w3.org/2000/svg"
   xmlns:svg="http://www.w3.org/2000/svg"><defs
     id="defs2" /><g
     id="layer1"><path
       style="fill:#aa0000;stroke-width:0.303064"
       d="M 76.70294,59.358874 C 71.85926,58.049898 62.30654,56.692869 53.9772,56.130523 51.18706,55.942149 48.7809,55.688077 48.63018,55.565916 48.47879,55.443214 48.85793,53.665073 49.4773,51.592941 54.13073,36.02476 54.17895,35.828386 53.86773,33.714669 53.58053,31.764111 51.45617,29.804912 48.90421,29.137052 47.86765,28.865778 46.5955,28.528912 46.07722,28.38846 44.05416,27.840226 38.09099,27.450375 34.29809,27.618386 c -4.17721,0.185032 -7.779,0.887107 -10.49451,2.045631 -2.32451,0.991709 -5.55912,3.680837 -7.17655,5.966294 -1.62004,2.289149 -1.98196,2.614816 -3.06019,2.753659 -0.69031,0.08889 -0.80915,0.283204 -0.98268,1.606665 -0.25079,1.912706 -0.34749,2.042464 -1.69799,2.278313 -1.3305303,0.232363 -1.5510803,0.657653 -1.8671703,3.600546 -0.1253,1.166606 -0.33484,2.182672 -0.46564,2.257926 -0.13081,0.07526 -0.41842,-1.076612 -0.63914,-2.559707 -0.22072,-1.483094 -0.51616,-2.814848 -0.65653,-2.959452 -0.14037,-0.144606 -0.79247,-0.343571 -1.4491,-0.442146 l -1.19389,-0.179228 -0.15705,-1.740376 c -0.15371,-1.70327 -0.17969,-1.744655 -1.21852,-1.941005 -0.5838,-0.110343 -1.18237,-0.378242 -1.33016,-0.595333 -0.14778,-0.217088 -0.27086,-6.741064 -0.2735,-14.497721 l -0.005,-14.1030127 0.8638,-0.16919 c 1.42291,-0.2787 1.78833,-0.580604 2.14743,-1.7741323 l 0.34241,-1.138082 3.29434,-0.08248 c 1.8119003,-0.04536 3.5830103,0.02043 3.9358103,0.146203 0.35281,0.125775 1.33259,1.082944 2.17729,2.1270433 1.81722,2.2461977 4.69835,4.3570197 7.24011,5.3043797 1.74033,0.648652 2.18903,0.681041 9.21104,0.664896 7.20233,-0.01656 9.0893,-0.147864 24.89671,-1.732426 2.37738,-0.238313 6.16292,-0.433296 8.4123,-0.433296 4.87856,0 5.23592,-0.235061 3.12084,-2.0527767 L 65.93223,8.8176993 66.09871,4.99651 66.26519,1.175321 67.60986,0.01970503 c 0.73957,-0.635589 1.4606,-1.15561603 1.60229,-1.15561603 0.14169,0 0.75042,0.49343503 1.35273,1.09652203 l 1.09511,1.09652197 0.008,4.146873 0.008,4.1468743 -0.94233,0.624634 c -1.28214,0.8498847 -1.3217,2.2039967 -0.0785,2.6882867 6.46972,2.520341 9.25731,4.625796 11.15211,8.423137 1.7911,3.589519 2.19497,5.452159 2.18773,10.08993 -0.005,3.38285 -0.14931,4.662705 -0.82297,7.312607 -1.48684,5.848592 -2.08464,9.989226 -2.28958,15.858634 l -0.19654,5.628813 -0.97121,-0.03314 c -0.53416,-0.01823 -1.88998,-0.281435 -3.01292,-0.584905 z"
       id="path363" /></g></svg>
