<?xml version="1.0" encoding="UTF-8" standalone="no"?>
<!-- Created with Inkscape (http://www.inkscape.org/) -->

<svg
   width="441"
   height="446"
   viewBox="0 0 116.68125 118.00417"
   version="1.1"
   id="svg5"
   xml:space="preserve"
   xmlns="http://www.w3.org/2000/svg"
   xmlns:svg="http://www.w3.org/2000/svg"><defs
     id="defs2" /><g
     id="layer1"><g
       id="g371"><path
         style="fill:#aa0000;stroke-width:0.303064"
         d="m 12.27472,80.23463 -10.2442503,-0.0896 -0.21884,-2.51074 c -0.12036,-1.3809 -0.11855,-4.875903 0.004,-7.766662 0.20784,-4.901577 0.26736,-5.282374 0.88274,-5.648247 1.16489,-0.692578 8.5010103,-2.220882 16.0512603,-3.34389 5.00448,-0.744354 18.80079,-1.767392 23.87236,-1.770202 7.91653,-0.0044 22.12885,1.578346 30.46866,3.393102 1.90037,0.413523 4.23264,0.877492 5.18282,1.031043 0.95018,0.153552 1.86895,0.410348 2.04171,0.570654 0.19375,0.179783 0.31411,3.283247 0.31411,8.09905 v 7.807612 l -2.19877,0.17927 c -2.22057,0.18105 -47.23016,0.21413 -66.15582,0.0486 z"
         id="path361" /><path
         style="fill:#aa0000;stroke-width:0.303064"
         d="m 2.0075897,95.29956 c -0.26714,-0.24868 -0.37693,-1.99511 -0.37693,-5.99545 v -5.64457 l 39.4993303,0.0742 39.49933,0.0742 v 5.70192 5.70191 l -2.35583,0.18109 c -1.2957,0.0996 -18.90078,0.19828 -39.1224,0.2193 C 10.92765,95.64146 2.2969397,95.56886 2.0075897,95.2995 Z"
         id="path359" /></g></g></svg>
