<?xml version="1.0" encoding="UTF-8" standalone="no"?>
<!-- Created with Inkscape (http://www.inkscape.org/) -->

<svg
   width="441"
   height="446"
   viewBox="0 0 116.68125 118.00417"
   version="1.1"
   id="svg5"
   xml:space="preserve"
   xmlns="http://www.w3.org/2000/svg"
   xmlns:svg="http://www.w3.org/2000/svg"><defs
     id="defs2" /><g
     id="layer1"><g
       id="g367"
       transform="translate(112.97708,-6.8791666)"><path
         style="fill:#aa0000;stroke-width:0.303064"
         d="m -14.32844,113.57967 c -0.57137,-0.0726 -1.11363,-0.31337 -1.20501,-0.53506 -0.15104,-0.36641 0.35106,-3.04431 2.21971,-11.83843 l 0.65239,-3.070257 3.37668,-0.083 c 3.31801,-0.0816 3.37669,-0.0716 3.37669,0.57441 0,1.452917 -2.71004,14.243427 -3.09661,14.615027 -0.27326,0.26267 -4.03529,0.50103 -5.32385,0.33731 z"
         id="path302" /><path
         style="fill:#aa0000;stroke-width:0.303064"
         d="m -17.373,95.75285 c -1.39671,-0.30376 -1.38803,-0.28564 -0.91684,-1.91237 0.878,-3.03124 1.42063,-6.87605 1.6053,-11.37427 0.3005,-7.319746 -0.40578,-11.000189 -3.2776,-17.079758 -2.78536,-5.896531 -3.31549,-7.462075 -3.31702,-9.795597 -0.002,-3.162271 1.56476,-6.062557 4.1902,-7.756265 3.40045,-2.193685 10.89171,-2.11077 15.92944,0.176309 1.07975,0.490195 1.98453,1.0475 2.01062,1.23845 0.0631,0.461595 -0.104,46.238981 -0.16901,46.310661 -0.11963,0.13193 -15.48651,0.3165 -16.05509,0.19284 z"
         id="path355" /></g></g></svg>
