<?xml version="1.0" encoding="UTF-8" standalone="no"?>
<!-- Created with Inkscape (http://www.inkscape.org/) -->

<svg
  width="441"
  height="446"
  viewBox="0 0 116.68125 118.00417"
  version="1.1"
  id="svg5"
  xml:space="preserve"
  xmlns="http://www.w3.org/2000/svg"
  xmlns:svg="http://www.w3.org/2000/svg"><defs
    id="defs2" /><g
    id="layer1"><g
     id="g620"><g
      id="g375"
      transform="matrix(0.83483105,0,0,0.9331785,22.084172,4.1574301)"><path
        id="path353"
        style="fill:#aa0000;stroke-width:0.303064"
           d="m 92.823887,113.58997 c -1.0235,-0.20624 -1.25569,-0.62518 -1.67755,-3.02676 -0.21187,-1.20618 -0.49132,-2.71938 -0.621,-3.36267 -1.255477,-6.22803 -1.572107,-7.946207 -1.572107,-8.530907 0,-0.66568 0.0648,-0.67988 3.102637,-0.67988 2.184,0 3.20435,0.11409 3.44616,0.38533 0.18894,0.21192 0.54535,1.49485 0.79201,2.850947 0.24667,1.3561 0.9057,4.60821 1.4645,7.22691 0.5588,2.61871 0.91521,4.85511 0.79201,4.96979 -0.25935,0.24144 -4.71302,0.3715 -5.72666,0.16725 z M 88.57318,95.72435 84.26675,95.63415 84.06929,94.65433 c -0.1086,-0.5389 -0.14471,-10.63419 -0.0802,-22.433978 0.13528,-24.76161 -0.0823,-23.033772 3.0665,-24.349238 2.68165,-1.120292 4.751637,-1.428625 8.656887,-1.289472 3.03221,0.108044 3.75238,0.234921 5.278373,0.929929 4.27929,1.948997 6.37142,6.405549 5.12806,10.923524 -0.27416,0.996192 -1.11976,3.033583 -1.87913,4.527531 -4.09075,8.047984 -4.606763,9.993522 -4.606763,17.369094 0,5.14456 0.28279,7.74596 1.326063,12.19822 0.5772,2.46329 0.60911,2.91165 0.22336,3.13889 -0.42747,0.25181 -2.754023,0.26206 -12.60921,0.0555 z M -17.373,95.75285 c -1.39671,-0.30376 -1.38803,-0.28564 -0.91684,-1.91237 0.878,-3.03124 1.42063,-6.87605 1.6053,-11.37427 0.3005,-7.319746 -0.40578,-11.000189 -3.2776,-17.079758 -2.78536,-5.896531 -3.31549,-7.462075 -3.31702,-9.795597 -0.002,-3.162271 1.56476,-6.062557 4.1902,-7.756265 3.40045,-2.193685 10.89171,-2.11077 15.92944,0.176309 1.07975,0.490195 1.98453,1.0475 2.01062,1.23845 0.0631,0.461595 -0.104,46.238981 -0.16901,46.310661 -0.11963,0.13193 -15.48651,0.3165 -16.05509,0.19284 z m 3.04456,17.82682 c -0.57137,-0.0726 -1.11363,-0.31337 -1.20501,-0.53506 -0.15104,-0.36641 0.35106,-3.04431 2.21971,-11.83843 l 0.65239,-3.070257 3.37668,-0.083 c 3.31801,-0.0816 3.37669,-0.0716 3.37669,0.57441 0,1.452917 -2.71004,14.243427 -3.09661,14.615027 -0.27326,0.26267 -4.03529,0.50103 -5.32385,0.33731 z M 2.0075897,95.29956 c -0.26714,-0.24868 -0.37693,-1.99511 -0.37693,-5.99545 v -5.64457 l 39.4993303,0.0742 39.49933,0.0742 v 5.70192 5.70191 l -2.35583,0.18109 c -1.2957,0.0996 -18.90078,0.19828 -39.1224,0.2193 C 10.92765,95.64146 2.2969397,95.56886 2.0075897,95.2995 Z M 12.27472,80.23463 2.0304697,80.14503 1.8116297,77.63429 c -0.12036,-1.3809 -0.11855,-4.875903 0.004,-7.766662 0.20784,-4.901577 0.26736,-5.282374 0.88274,-5.648247 1.16489,-0.692578 8.5010103,-2.220882 16.0512603,-3.34389 5.00448,-0.744354 18.80079,-1.767392 23.87236,-1.770202 7.91653,-0.0044 22.12885,1.578346 30.46866,3.393102 1.90037,0.413523 4.23264,0.877492 5.18282,1.031043 0.95018,0.153552 1.86895,0.410348 2.04171,0.570654 0.19375,0.179783 0.31411,3.283247 0.31411,8.09905 v 7.807612 l -2.19877,0.17927 c -2.22057,0.18105 -47.23016,0.21413 -66.15582,0.0486 z M 77.855188,58.277706 C 72.963195,57.121428 63.363173,56.064799 55.016919,55.764 52.221111,55.663237 49.806475,55.484778 49.651061,55.367419 49.494956,55.24954 49.80419,53.460601 50.341987,51.370321 54.382548,35.665779 54.423045,35.468014 54.029194,33.365355 53.665742,31.425002 51.465921,29.533626 48.88936,28.946204 c -1.046552,-0.238602 -2.33112,-0.535367 -2.854584,-0.65948 -2.043299,-0.484456 -8.01808,-0.687066 -11.802065,-0.400216 -4.167393,0.315913 -7.739461,1.130505 -10.407907,2.373474 -2.284223,1.063994 -5.411477,3.852904 -6.938362,6.187678 -1.529349,2.338546 -1.878286,2.675362 -2.950414,2.847931 -0.686402,0.110483 -0.797554,0.308405 -0.91912,1.636495 -0.175692,1.919395 -0.267248,2.052105 -1.607676,2.33016 -1.320607,0.273946 -1.5243589,0.70589 -1.7249432,3.656886 -0.079513,1.169819 -0.2491103,2.191831 -0.376881,2.271142 C 9.1796262,49.269594 8.8470595,48.127444 8.5683636,46.652182 8.2896677,45.176922 7.9422262,43.855251 7.7962769,43.715137 7.6503276,43.575022 6.9908313,43.396629 6.330742,43.318706 L 5.1305638,43.177027 4.9054177,41.442646 C 4.6850629,39.745243 4.6574765,39.704697 3.6115906,39.541045 3.0238274,39.449078 2.415127,39.200114 2.2589217,38.987792 2.1027273,38.775471 1.7240938,32.259364 1.4175251,24.507557 L 0.85989974,10.413369 1.7165389,10.217195 C 3.1276532,9.8940448 3.4810193,9.5808668 3.7931328,8.376811 L 4.0907403,7.2286909 7.3798225,7.0429536 c 1.8090104,-0.1021562 3.5816085,-0.091944 3.9391215,0.022686 0.35752,0.114634 1.374203,1.0404891 2.259296,2.0574574 1.904115,2.1878311 4.866182,4.2070061 7.443502,5.0740761 1.764676,0.593678 2.214369,0.611975 9.231431,0.375636 7.197255,-0.242406 9.07792,-0.432807 24.813527,-2.512104 2.366582,-0.312719 6.142155,-0.626294 8.390153,-0.696832 4.875562,-0.152988 5.223491,-0.399111 3.038489,-2.1493831 l -1.3846,-1.1091393 0.01665,-3.8240623 0.01665,-3.82406141 1.298562,-1.19707355 c 0.714212,-0.65839074 1.414423,-1.20070924 1.556026,-1.20515254 0.141603,-0.00445 0.769294,0.4695993 1.394863,1.05342765 l 1.137403,1.06150635 0.170508,4.1440728 0.170507,4.1440751 -0.917275,0.6537999 c -1.248052,0.8895684 -1.234528,2.2440894 0.02689,2.6890964 6.5645,2.315906 9.432874,4.33265 11.475302,8.068238 1.930647,3.531145 2.407252,5.379976 2.581739,10.015124 0.127523,3.380929 0.03348,4.664522 -0.535935,7.33392 -1.256761,5.891624 -1.69195,10.04846 -1.666783,15.920688 l 0.02414,5.631517 -0.971912,-0.0027 c -0.534546,-0.0015 -1.899845,-0.221994 -3.033986,-0.490063 z" /></g></g>
      <g id="g_path608_anim">
        <!-- 1cm up = -10 user units, 1cm down = +10 user units (viewBox mapping: 1cm ≈ 10 user units) -->
        <animateTransform
          attributeName="transform"
          type="translate"
          values="0 -10; 0 10; 0 -10"
          keyTimes="0; 0.5; 1"
          dur="1s"
          repeatCount="indefinite"
          calcMode="spline"
          keySplines="0.42 0 0.58 1; 0.42 0 0.58 1" />
        <path
             style="fill:#aa0000;stroke:#000101;stroke-width:0"
             id="path608"
             d="m 43.65625,52.652084 -5.812267,-9.60887 -5.812267,-9.60887 11.227658,-0.229136 11.22766,-0.229136 -5.415392,9.838006 z"
             transform="matrix(0.17521397,0,0,1,22.185979,0.52916453)" />
      </g></g></svg>
