<?xml version="1.0" encoding="UTF-8" standalone="no"?>
<!-- Created with Inkscape (http://www.inkscape.org/) -->

<svg
  width="441"
  height="446"
  viewBox="0 0 116.68125 118.00417"
  version="1.1"
  id="svg5"
  xml:space="preserve"
  xmlns="http://www.w3.org/2000/svg"
  xmlns:svg="http://www.w3.org/2000/svg"><defs
    id="defs2" /><g
    id="layer1">
    <!-- continuous forward then backward rotation around viewBox center -->
    <animateTransform
     attributeName="transform"
     attributeType="XML"
     type="rotate"
     dur="6s"
     repeatCount="indefinite"
     values="0 58.340625 59.002085;360 58.340625 59.002085;0 58.340625 59.002085;-360 58.340625 59.002085"
     keyTimes="0;0.33;0.66;1"
     calcMode="linear" />
   <g
     id="g475"><path
      style="fill:#aa0000;stroke-width:0.267495"
      d="m 86.118168,59.549855 c -4.043654,-1.221508 -12.018562,-2.487859 -18.972153,-3.012628 -2.329296,-0.175786 -4.338033,-0.412881 -4.463859,-0.526879 -0.126385,-0.114503 0.190133,-1.773826 0.707202,-3.707495 3.884828,-14.527892 3.925084,-14.711144 3.665268,-16.683619 -0.239764,-1.820219 -2.013245,-3.648501 -4.143701,-4.271734 -0.865352,-0.253147 -1.927383,-0.567503 -2.360059,-0.69857 -1.688913,-0.5116 -6.667153,-0.8754 -9.833583,-0.718616 -3.487265,0.172668 -6.494151,0.827829 -8.761143,1.908939 -1.940573,0.925441 -4.640926,3.434878 -5.991207,5.567617 -1.35246,2.136185 -1.654602,2.44009 -2.554742,2.569655 -0.576292,0.08295 -0.675503,0.26428 -0.820371,1.499306 -0.209368,1.784896 -0.290096,1.905983 -1.417535,2.126072 -1.110768,0.216837 -1.29489,0.613708 -1.558772,3.359952 -0.104604,1.088652 -0.279535,2.036823 -0.388731,2.107049 -0.109204,0.07023 -0.34931,-1.004672 -0.533573,-2.388664 C 28.506945,45.296249 28.260302,44.053484 28.143117,43.918543 28.025932,43.7836 27.481538,43.59793 26.933363,43.505942 L 25.936667,43.33869 25.805557,41.714609 C 25.677235,40.125154 25.655546,40.086534 24.788298,39.903304 24.300924,39.800335 23.801219,39.550337 23.677839,39.347753 23.554468,39.145171 23.451717,33.057137 23.449513,25.818791 l -0.0042,-13.160628 0.721127,-0.157884 c 1.187889,-0.260077 1.492953,-0.541808 1.792741,-1.655583 l 0.285855,-1.0620333 2.750217,-0.076969 c 1.512631,-0.042329 2.991208,0.019065 3.285737,0.1364335 0.294536,0.1173706 1.112487,1.0105798 1.817669,1.9849108 1.517072,2.096104 3.922328,4.065878 6.044269,4.949934 1.452881,0.605308 1.82747,0.635532 7.689662,0.620466 6.012728,-0.01545 7.58803,-0.137983 20.784546,-1.616663 1.984711,-0.222388 5.144997,-0.404342 7.022849,-0.404342 4.072774,0 4.371109,-0.219354 2.605375,-1.915607 L 77.126445,12.385918 77.265428,8.8200658 77.40441,5.2542143 78.526982,4.1758184 c 0.617416,-0.593118 1.219355,-1.0783961 1.337642,-1.0783961 0.118287,0 0.626474,0.460463 1.129301,1.0232508 l 0.914232,1.0232508 0.0067,3.8697727 0.0067,3.8697744 -0.786686,0.582895 c -1.070371,0.793093 -1.103396,2.056722 -0.06553,2.508651 5.401124,2.351928 7.72829,4.316693 9.310128,7.86029 1.495266,3.349662 1.832429,5.087838 1.826385,9.415706 -0.0042,3.156803 -0.124649,4.351136 -0.687041,6.823967 -1.24126,5.457781 -1.740322,9.321731 -1.911412,14.798937 l -0.164078,5.252687 -0.810796,-0.03092 c -0.445934,-0.01701 -1.577814,-0.26263 -2.515279,-0.545821 z"
      id="path363" /><g
      id="g371"
      transform="matrix(0.83483105,0,0,0.9331785,22.084172,4.1574301)"><path
        style="fill:#aa0000;stroke-width:0.303064"
        d="m 12.27472,80.23463 -10.2442503,-0.0896 -0.21884,-2.51074 c -0.12036,-1.3809 -0.11855,-4.875903 0.004,-7.766662 0.20784,-4.901577 0.26736,-5.282374 0.88274,-5.648247 1.16489,-0.692578 8.5010103,-2.220882 16.0512603,-3.34389 5.00448,-0.744354 18.80079,-1.767392 23.87236,-1.770202 7.91653,-0.0044 22.12885,1.578346 30.46866,3.393102 1.90037,0.413523 4.23264,0.877492 5.18282,1.031043 0.95018,0.153552 1.86895,0.410348 2.04171,0.570654 0.19375,0.179783 0.31411,3.283247 0.31411,8.09905 v 7.807612 l -2.19877,0.17927 c -2.22057,0.18105 -47.23016,0.21413 -66.15582,0.0486 z"
        id="path361" /><path
        style="fill:#aa0000;stroke-width:0.303064"
        d="m 2.0075897,95.29956 c -0.26714,-0.24868 -0.37693,-1.99511 -0.37693,-5.99545 v -5.64457 l 39.4993303,0.0742 39.49933,0.0742 v 5.70192 5.70191 l -2.35583,0.18109 c -1.2957,0.0996 -18.90078,0.19828 -39.1224,0.2193 C 10.92765,95.64146 2.2969397,95.56886 2.0075897,95.2995 Z"
        id="path359" /></g><g
      id="g367"
      transform="matrix(0.83483105,0,0,0.9331785,22.084172,4.1574301)"><path
        style="fill:#aa0000;stroke-width:0.303064"
        d="m -14.32844,113.57967 c -0.57137,-0.0726 -1.11363,-0.31337 -1.20501,-0.53506 -0.15104,-0.36641 0.35106,-3.04431 2.21971,-11.83843 l 0.65239,-3.070257 3.37668,-0.083 c 3.31801,-0.0816 3.37669,-0.0716 3.37669,0.57441 0,1.452917 -2.71004,14.243427 -3.09661,14.615027 -0.27326,0.26267 -4.03529,0.50103 -5.32385,0.33731 z"
        id="path302" /><path
        style="fill:#aa0000;stroke-width:0.303064"
        d="m -17.373,95.75285 c -1.39671,-0.30376 -1.38803,-0.28564 -0.91684,-1.91237 0.878,-3.03124 1.42063,-6.87605 1.6053,-11.37427 0.3005,-7.319746 -0.40578,-11.000189 -3.2776,-17.079758 -2.78536,-5.896531 -3.31549,-7.462075 -3.31702,-9.795597 -0.002,-3.162271 1.56476,-6.062557 4.1902,-7.756265 3.40045,-2.193685 10.89171,-2.11077 15.92944,0.176309 1.07975,0.490195 1.98453,1.0475 2.01062,1.23845 0.0631,0.461595 -0.104,46.238981 -0.16901,46.310661 -0.11963,0.13193 -15.48651,0.3165 -16.05509,0.19284 z"
        id="path355" /></g><g
      id="g375"
      transform="matrix(0.83483105,0,0,0.9331785,22.084172,4.1574301)"><path
        style="fill:#aa0000;stroke-width:0.303064"
        d="m 88.57318,95.72435 -4.30643,-0.0902 -0.19746,-0.97982 c -0.1086,-0.5389 -0.14471,-10.63419 -0.0802,-22.433978 0.13528,-24.76161 -0.0823,-23.033772 3.0665,-24.349238 2.68165,-1.120292 4.751637,-1.428625 8.656887,-1.289472 3.03221,0.108044 3.75238,0.234921 5.278373,0.929929 4.27929,1.948997 6.37142,6.405549 5.12806,10.923524 -0.27416,0.996192 -1.11976,3.033583 -1.87913,4.527531 -4.09075,8.047984 -4.606763,9.993522 -4.606763,17.369094 0,5.14456 0.28279,7.74596 1.326063,12.19822 0.5772,2.46329 0.60911,2.91165 0.22336,3.13889 -0.42747,0.25181 -2.754023,0.26206 -12.60921,0.0555 z"
        id="path357" /><path
        style="fill:#aa0000;stroke-width:0.303064"
        d="m 92.823887,113.58997 c -1.0235,-0.20624 -1.25569,-0.62518 -1.67755,-3.02676 -0.21187,-1.20618 -0.49132,-2.71938 -0.621,-3.36267 -1.255477,-6.22803 -1.572107,-7.946207 -1.572107,-8.530907 0,-0.66568 0.0648,-0.67988 3.102637,-0.67988 2.184,0 3.20435,0.11409 3.44616,0.38533 0.18894,0.21192 0.54535,1.49485 0.79201,2.850947 0.24667,1.3561 0.9057,4.60821 1.4645,7.22691 0.5588,2.61871 0.91521,4.85511 0.79201,4.96979 -0.25935,0.24144 -4.71302,0.3715 -5.72666,0.16725 z"
        id="path353" /></g></g></g></svg>
